<svg xmlns="http://www.w3.org/2000/svg" viewBox="0 0 404 404" width="404" height="404">
	<style>
		tspan { white-space:pre }
        .shp2 {
            fill: #ccc;
        }
	</style>
	<path id="Shape1" class="shp0" fill="#fff" d="M292 269C245 269 207 214.24 207 146.5C207 78.76 245 24 292 24C339 24 377 78.76 377 146.5C377 214.24 339 269 292 269Z" />
	<path id="Shape2" class="shp1" fill="#fff" d="M114.5 366C62.79 366 21 289.34 21 194.5C21 99.66 62.79 23 114.5 23C166.21 23 208 99.66 208 194.5C208 289.34 166.21 366 114.5 366Z" />
	<path id="Layer" fill-rule="evenodd" class="shp2" d="M404 49.25L404 354.75C404 381.95 381.95 404 354.75 404L49.25 404C22.05 404 0 381.95 0 354.75L0 49.25C0 22.05 22.05 0 49.25 0L354.75 0C381.95 0 404 22.05 404 49.25ZM175.74 78.83C175.74 66.19 165.5 55.95 152.87 55.95L75.39 55.95C62.76 55.95 52.52 66.19 52.52 78.83L52.52 314.89C52.52 327.52 62.76 337.76 75.39 337.76L152.87 337.76C165.5 337.76 175.74 327.52 175.74 314.89L175.74 78.83ZM351.48 78.83C351.48 66.19 341.24 55.95 328.61 55.95L251.13 55.95C238.5 55.95 228.26 66.19 228.26 78.83L228.26 213.34C228.26 225.97 238.5 236.21 251.13 236.21L328.61 236.21C341.24 236.21 351.48 225.97 351.48 213.34L351.48 78.83Z" />
	<g id="Layer">
	</g>
	<g id="Layer">
	</g>
	<g id="Layer">
	</g>
	<g id="Layer">
	</g>
	<g id="Layer">
	</g>
	<g id="Layer">
	</g>
	<g id="Layer">
	</g>
	<g id="Layer">
	</g>
	<g id="Layer">
	</g>
	<g id="Layer">
	</g>
	<g id="Layer">
	</g>
	<g id="Layer">
	</g>
	<g id="Layer">
	</g>
	<g id="Layer">
	</g>
	<g id="Layer">
	</g>
</svg>