<svg xmlns="http://www.w3.org/2000/svg" viewBox="0 0 836 237" width="836" height="237">
	<style>
		tspan { white-space:pre }
		.shp0 { fill: #fbfbfb } 
		.shp1 { fill: #ffffff } 
	</style>
	<path id="Path_1" fill-rule="evenodd" class="shp0" d="M673.29 177.59C673.29 177.59 673.29 177.59 673.29 177.59C673.29 177.59 673.29 177.59 673.29 177.59L673.29 177.59ZM673.29 177.59C674.83 153.8 687.33 131.72 700.38 112.15C702.59 108.66 705.76 106.13 707.98 102.96C717.48 89.34 731.1 73.18 746.94 73.18C748.89 73.16 750.83 73.31 752.75 73.63C754.67 73.94 756.55 74.43 758.39 75.07C760.22 75.72 761.99 76.53 763.69 77.48C765.38 78.44 766.99 79.55 768.49 80.78C771.34 83.32 772.29 84.59 773.24 87.12C777.99 99.47 779.89 101.69 787.18 101.69C791.93 101.69 798.9 100.74 810.62 100.74C825.51 100.74 835.33 106.44 835.33 111.83C835.33 114.99 832.8 116.26 829.63 117.53C825.19 119.11 825.83 120.7 821.08 121.65C813.16 122.91 806.5 125.77 797.95 127.03C796.98 127.16 796.01 127.26 795.03 127.35C794.05 127.44 793.08 127.51 792.1 127.56C791.12 127.61 790.14 127.65 789.17 127.67C788.19 127.68 787.21 127.68 786.23 127.67C784.96 127.67 784.01 128.62 783.38 131.15C775.14 164.73 764.37 191.34 744.73 212.89C737.12 221.12 727.3 232.21 713.68 232.21C712.78 232.2 711.87 232.13 710.98 232.02C710.08 231.91 709.19 231.74 708.31 231.53C707.43 231.32 706.57 231.06 705.72 230.75C704.87 230.44 704.04 230.08 703.23 229.68C691.58 224 681.91 216.92 678.45 209.76C668.06 222.01 653.04 236.96 637.33 236.96C636.85 236.95 636.38 236.93 635.9 236.89C635.42 236.86 634.94 236.82 634.47 236.76C633.99 236.71 633.52 236.65 633.05 236.58C632.57 236.5 632.1 236.42 631.63 236.33C619.91 233.79 611.04 228.41 605.34 222.39C604.81 221.87 604.31 221.33 603.83 220.77C603.34 220.2 602.88 219.62 602.44 219.03C602.01 218.43 601.59 217.82 601.2 217.19C600.81 216.56 600.45 215.91 600.11 215.26C590.15 226.06 577.25 236.96 563.84 236.96C563.36 236.95 562.88 236.93 562.4 236.89C561.93 236.86 561.45 236.82 560.97 236.76C560.5 236.71 560.02 236.65 559.55 236.58C559.08 236.5 558.61 236.42 558.14 236.33C546.41 233.79 537.54 228.41 531.84 222.39C526.12 216.38 524.53 211.92 524.28 203.87C515.06 211.81 502.29 220.75 481.47 232.53C480.42 233.14 479.33 233.67 478.2 234.12C477.08 234.58 475.92 234.95 474.75 235.25C473.57 235.54 472.37 235.76 471.17 235.88C469.96 236.01 468.74 236.05 467.53 236.01C458.03 236.01 447.57 231.89 433 224.29C425.08 220.17 419.38 211.3 415.89 201.16C415.25 199.39 414.68 197.59 414.18 195.77C413.68 193.95 413.26 192.1 412.91 190.25C412.57 188.39 412.3 186.52 412.11 184.64C411.92 182.76 411.81 180.88 411.78 178.99C411.78 177.89 411.82 176.79 411.9 175.7C411.98 174.6 412.1 173.51 412.26 172.43C412.42 171.34 412.62 170.26 412.85 169.19C413.09 168.12 413.36 167.05 413.67 166C414.67 162.65 415.77 159.33 416.99 156.05C418.21 152.78 419.53 149.54 420.97 146.36C422.41 143.17 423.95 140.03 425.6 136.95C427.25 133.87 429 130.84 430.86 127.88C430.31 127.69 429.76 127.52 429.21 127.37C428.66 127.21 428.1 127.07 427.54 126.95C426.97 126.82 426.41 126.72 425.84 126.62C425.27 126.53 424.7 126.46 424.13 126.4C422.55 126.4 410.51 132.42 401.64 138.12C375.35 154.91 351.58 180.25 343.35 217.64C342.08 223.34 339.55 227.46 334.79 231.58C334.31 231.99 333.8 232.35 333.25 232.67C332.71 232.99 332.13 233.26 331.54 233.47C330.94 233.69 330.33 233.85 329.71 233.96C329.09 234.07 328.46 234.12 327.82 234.11C322.76 234.11 319.27 231.89 313.57 225.56C310.08 221.75 307.55 216.68 307.55 212.88C307.55 200.85 320.22 191.02 324.02 179.94C330.99 159.98 337.65 140.02 343.03 119.74C344.93 112.77 346.2 105.49 346.2 103.9C346.2 101.05 343.35 99.79 343.35 96.62C343.35 92.18 351.27 88.06 359.82 88.06C366.79 88.06 372.49 91.55 373.44 93.13C377.56 100.1 378.51 105.8 378.51 110.24C378.52 110.93 378.5 111.62 378.48 112.31C378.45 113 378.42 113.68 378.36 114.37C378.31 115.06 378.24 115.74 378.16 116.43C378.08 117.11 377.99 117.8 377.88 118.48C377.88 119.11 378.2 119.43 378.51 119.43C379.15 119.43 380.1 118.79 381.68 117.53C391.81 109.92 411.46 96.93 421.91 96.93C430.82 96.93 440.22 99.38 446.88 105.13C453.26 97.09 460.12 89.31 467.22 81.73C469.56 79.35 472.15 77.2 474.92 75.33C477.7 73.47 480.66 71.88 483.75 70.6C486.85 69.33 490.07 68.37 493.35 67.74C496.64 67.1 499.98 66.81 503.33 66.84C505.14 66.87 506.94 66.96 508.74 67.13C510.54 67.3 512.33 67.55 514.1 67.86C515.88 68.18 517.64 68.57 519.39 69.04C521.13 69.5 522.86 70.04 524.56 70.64C534.38 74.13 537.23 83.63 537.23 91.87C537.23 104.54 527.73 121.97 520.44 130.84C500.8 154.91 477.99 178.99 450.11 195.78C446.94 197.68 446.62 198 446.62 199.58C446.62 201.48 449.47 207.5 452.32 208.77C452.78 209.02 453.26 209.24 453.75 209.43C454.23 209.63 454.73 209.79 455.24 209.92C455.75 210.06 456.26 210.16 456.78 210.23C457.3 210.3 457.82 210.34 458.34 210.35C467.85 210.35 479.57 202.12 483.37 199.9C503.01 188.49 516.64 171.7 532.79 162.2C533.14 161.99 533.5 161.79 533.86 161.6C534.98 158.73 536.12 155.87 537.23 153.01C551.17 117.85 578.41 68.11 602.17 27.88C605.66 22.18 608.82 0.32 623.71 0.32C627.83 0.32 631 0 634.49 0C640.82 0 646.52 2.53 647.79 5.39C649.37 8.87 650.64 11.73 650.64 15.21C650.63 16.22 650.55 17.22 650.4 18.22C650.25 19.22 650.02 20.2 649.73 21.16C649.43 22.13 649.07 23.07 648.64 23.98C648.21 24.89 647.71 25.77 647.16 26.61C618.64 71.91 586.65 113.41 567.96 161.88C562.57 175.82 556.24 185.33 556.24 204.97C556.24 210.67 557.82 211.94 559.09 211.94C559.31 211.92 559.54 211.88 559.76 211.83C559.99 211.78 560.2 211.72 560.42 211.64C560.63 211.56 560.84 211.46 561.04 211.35C561.24 211.25 561.44 211.12 561.62 210.99C577.76 200.23 588.08 180.86 601.86 176.87C604.37 168.78 607.67 160.9 610.73 153.01C624.66 117.85 651.91 68.11 675.67 27.88C679.15 22.18 682.32 0.32 697.21 0.32C701.33 0.32 704.5 0 707.98 0C714.32 0 720.02 2.53 721.29 5.39C722.87 8.88 724.14 11.73 724.14 15.21C724.13 16.22 724.05 17.23 723.9 18.22C723.74 19.22 723.52 20.2 723.22 21.16C722.93 22.13 722.56 23.07 722.13 23.98C721.71 24.89 721.21 25.77 720.65 26.61C692.14 71.91 660.15 113.42 641.45 161.89C636.07 175.82 629.73 185.33 629.73 204.97C629.73 210.67 631.32 211.94 632.58 211.94C632.81 211.92 633.04 211.88 633.26 211.83C633.48 211.78 633.7 211.72 633.92 211.64C634.13 211.56 634.34 211.46 634.54 211.35C634.74 211.25 634.93 211.12 635.12 210.99C650.44 200.77 660.52 182.79 673.29 177.59ZM268.27 69.7C259.08 69.7 249.89 68.43 245.14 62.73C243.56 60.83 243.56 58.61 243.56 55.76C243.56 50.05 244.5 43.72 246.09 42.13C247.68 40.55 249.58 38.65 253.38 38.65C260.03 38.65 259.08 40.87 274.92 40.87C291.39 40.87 314.2 37.38 320.54 36.12C324.42 35.31 328.32 34.6 332.23 33.98C336.14 33.36 340.07 32.84 344.01 32.42C347.95 32 351.9 31.67 355.86 31.44C359.81 31.21 363.78 31.08 367.74 31.05C381.68 31.05 401.64 44.35 401.64 49.74C401.64 55.44 399.42 58.93 394.99 62.09C393.08 63.36 387.7 65.58 384.53 65.58C380.73 65.58 378.51 63.36 376.29 61.14C375.34 60.19 369.01 57.97 367.42 57.97C363.91 58 360.4 58.12 356.89 58.33C353.38 58.54 349.88 58.84 346.39 59.24C342.9 59.64 339.42 60.13 335.95 60.71C332.49 61.29 329.04 61.96 325.61 62.73C325.74 62.91 325.86 63.1 325.97 63.31C326.08 63.51 326.17 63.71 326.25 63.93C326.33 64.14 326.4 64.36 326.45 64.58C326.5 64.81 326.54 65.03 326.56 65.26C326.56 66.85 325.29 67.8 315.47 85.85C294.88 123.87 281.57 160.3 272.7 206.87C272.46 208.36 272.26 209.86 272.09 211.36C271.92 212.86 271.78 214.36 271.68 215.87C271.57 217.38 271.5 218.89 271.46 220.4C271.41 221.91 271.41 223.42 271.43 224.93C271.43 232.21 267.95 236.65 260.98 236.65C256.22 236.65 249.25 234.43 240.7 229.36C236.27 226.83 235 222.08 235 217.64C235.01 216.74 235.04 215.83 235.1 214.93C235.16 214.02 235.24 213.12 235.35 212.22C235.45 211.32 235.58 210.43 235.74 209.53C235.89 208.64 236.07 207.75 236.27 206.87C247.99 160.31 261.29 118.17 280.62 76.67C282.84 71.92 283.15 70.97 283.15 70.33C283.15 69.38 282.52 69.07 281.57 69.07C280.62 69.07 276.18 69.7 268.26 69.7L268.27 69.7ZM503.01 95.36C503.01 93.77 502.38 93.46 501.43 93.46C499.84 93.46 495.41 95.99 488.12 103.28C474.82 116.58 462.78 130.21 452.96 150.8C449.79 157.45 449.47 158.72 449.47 159.67C449.48 159.79 449.51 159.91 449.56 160.02C449.61 160.14 449.68 160.24 449.77 160.33C449.86 160.41 449.96 160.48 450.07 160.53C450.18 160.58 450.3 160.61 450.42 160.62C451.06 160.62 451.69 160.62 455.81 156.82C470.7 143.2 482.1 130.84 491.29 118.49C496.04 112.15 494.46 112.15 498.26 106.13C502.06 100.11 503.01 98.21 503.01 95.36L503.01 95.36ZM746.63 103.6C745.68 103.6 743.78 103.91 741.25 107.4C725.72 127.67 702.28 164.42 702.28 189.13C702.29 189.91 702.34 190.69 702.41 191.47C702.48 192.25 702.59 193.02 702.72 193.79C702.85 194.56 703.01 195.32 703.21 196.08C703.4 196.83 703.62 197.58 703.86 198.32C704.81 200.86 707.35 204.97 708.93 204.97C710.83 204.97 713.05 204.02 716.85 198.32C733.96 172.66 751.38 147.32 751.38 116.59C751.38 113.1 751.38 108.67 750.12 107.72C749.83 107.52 749.56 107.31 749.31 107.08C749.06 106.84 748.82 106.59 748.61 106.32C748.39 106.06 748.2 105.77 748.03 105.47C747.86 105.18 747.71 104.87 747.58 104.55C747.27 103.91 746.95 103.6 746.63 103.6L746.63 103.6Z" />
	<path id="Layer" fill-rule="evenodd" class="shp1" d="M202 56.26L202 206.71C202 220.11 190.98 230.97 177.38 230.97L24.63 230.97C11.03 230.97 0 220.11 0 206.71L0 56.26C0 42.86 11.03 32 24.63 32L177.38 32C190.98 32 202 42.86 202 56.26ZM87.87 70.82C87.87 64.6 82.75 59.55 76.44 59.55L37.7 59.55C31.38 59.55 26.26 64.6 26.26 70.82L26.26 187.08C26.26 193.3 31.38 198.34 37.7 198.34L76.44 198.34C82.75 198.34 87.87 193.3 87.87 187.08L87.87 70.82ZM175.74 70.82C175.74 64.6 170.62 59.55 164.31 59.55L125.57 59.55C119.25 59.55 114.13 64.6 114.13 70.82L114.13 137.07C114.13 143.29 119.25 148.33 125.57 148.33L164.31 148.33C170.62 148.33 175.74 143.29 175.74 137.07L175.74 70.82Z" />
</svg>